<?xml version="1.0" encoding="UTF-8" standalone="no"?>
<svg width="259.292mm" height="53.6222mm"
 xmlns="http://www.w3.org/2000/svg" xmlns:xlink="http://www.w3.org/1999/xlink"  version="1.2" baseProfile="tiny">
<title>Qt SVG Document</title>
<desc>Generated with Qt</desc>
<defs>
</defs>
<g fill="none" stroke="black" stroke-width="1" fill-rule="evenodd" stroke-linecap="square" stroke-linejoin="bevel" >

<g fill="none" stroke="#000000" stroke-opacity="1" stroke-width="1" stroke-linecap="square" stroke-linejoin="bevel" transform="matrix(1,0,0,1,0,0)"
font-family="Ubuntu" font-size="11" font-weight="400" font-style="normal" 
>
</g>

<g fill="none" stroke="#000000" stroke-opacity="1" stroke-width="1" stroke-linecap="square" stroke-linejoin="bevel" transform="matrix(1,0,0,1,0,0)"
font-family="Ubuntu" font-size="11" font-weight="400" font-style="normal" 
>
</g>

<g fill="none" stroke="#000000" stroke-opacity="1" stroke-width="1" stroke-linecap="square" stroke-linejoin="bevel" transform="matrix(2,0,0,2,-15,167)"
font-family="Ubuntu" font-size="11" font-weight="400" font-style="normal" 
>
</g>

<g fill="#ffffff" fill-opacity="1" stroke="none" transform="matrix(2,0,0,2,-15,167)"
font-family="Ubuntu" font-size="11" font-weight="400" font-style="normal" 
>
<rect x="7.5" y="-83.5" width="367.48" height="76"/>
</g>

<g fill="none" stroke="#000000" stroke-opacity="1" stroke-width="1" stroke-linecap="square" stroke-linejoin="bevel" transform="matrix(2,0,0,2,-15,167)"
font-family="Ubuntu" font-size="11" font-weight="400" font-style="normal" 
>
</g>

<g fill="none" stroke="#000000" stroke-opacity="1" stroke-width="1" stroke-linecap="square" stroke-linejoin="bevel" transform="matrix(2,0,0,2,-15,167)"
font-family="Ubuntu" font-size="11" font-weight="400" font-style="normal" 
>
</g>

<g fill="none" stroke="#000000" stroke-opacity="1" stroke-width="1" stroke-linecap="square" stroke-linejoin="bevel" transform="matrix(2,0,0,2,-15,167)"
font-family="Ubuntu" font-size="11" font-weight="400" font-style="normal" 
>
</g>

<g fill="none" stroke="#000000" stroke-opacity="1" stroke-width="1" stroke-linecap="square" stroke-linejoin="bevel" transform="matrix(2,0,0,2,-15,167)"
font-family="Ubuntu" font-size="11" font-weight="400" font-style="normal" 
>
</g>

<g fill="none" stroke="#000000" stroke-opacity="1" stroke-width="1" stroke-linecap="square" stroke-linejoin="round" transform="matrix(2,0,0,2,-15,167)"
font-family="Ubuntu" font-size="11" font-weight="400" font-style="normal" 
>
<rect x="8" y="-83" width="366.48" height="75"/>
</g>

<g fill="none" stroke="#000000" stroke-opacity="1" stroke-width="1" stroke-linecap="square" stroke-linejoin="bevel" transform="matrix(2,0,0,2,-15,167)"
font-family="Ubuntu" font-size="11" font-weight="400" font-style="normal" 
>
</g>

<g fill="none" stroke="#000000" stroke-opacity="1" stroke-width="1" stroke-linecap="square" stroke-linejoin="bevel" transform="matrix(2,0,0,2,344.308,10)"
font-family="Ubuntu" font-size="11" font-weight="400" font-style="normal" 
>
</g>

<g fill="none" stroke="#000000" stroke-opacity="1" stroke-width="1" stroke-linecap="square" stroke-linejoin="bevel" transform="matrix(2,0,0,2,344.308,10)"
font-family="sans" font-size="11" font-weight="100" font-style="normal" 
>
</g>

<g fill="#000000" fill-opacity="1" stroke="#000000" stroke-opacity="1" stroke-width="1" stroke-linecap="square" stroke-linejoin="round" transform="matrix(2,0,0,2,344.308,10)"
font-family="sans" font-size="11" font-weight="100" font-style="normal" 
>
<path vector-effect="none" fill-rule="nonzero" d="M2.79688,2.98438 L3.70313,2.98438 L0.90625,12.0156 L0,12.0156 L2.79688,2.98438 M8.57813,5.15625 L8.57813,6.09375 C8.29688,5.94792 8.00521,5.84115 7.70313,5.77344 C7.40104,5.70573 7.08854,5.67188 6.76563,5.67188 C6.27604,5.67188 5.90885,5.7474 5.66406,5.89844 C5.41927,6.04948 5.29688,6.27083 5.29688,6.5625 C5.29688,6.79167 5.38542,6.97135 5.5625,7.10156 C5.73958,7.23177 6.09375,7.35938 6.625,7.48438 L6.95313,7.5625 C7.66146,7.70833 8.16146,7.91927 8.45313,8.19531 C8.74479,8.47135 8.89063,8.85417 8.89063,9.34375 C8.89063,9.89583 8.67188,10.3359 8.23438,10.6641 C7.79688,10.9922 7.1875,11.1563 6.40625,11.1563 C6.08333,11.1563 5.7474,11.125 5.39844,11.0625 C5.04948,11 4.68229,10.9063 4.29688,10.7813 L4.29688,9.76563 C4.66146,9.95313 5.02083,10.0938 5.375,10.1875 C5.72917,10.2813 6.08333,10.3281 6.4375,10.3281 C6.89583,10.3281 7.25,10.2474 7.5,10.0859 C7.75,9.92448 7.875,9.70313 7.875,9.42188 C7.875,9.15104 7.78646,8.94271 7.60938,8.79688 C7.43229,8.65104 7.03646,8.51563 6.42188,8.39063 L6.07813,8.29688 C5.46354,8.17188 5.02083,7.97656 4.75,7.71094 C4.47917,7.44531 4.34375,7.07813 4.34375,6.60938 C4.34375,6.04688 4.54427,5.61198 4.94531,5.30469 C5.34635,4.9974 5.91667,4.84375 6.65625,4.84375 C7.02083,4.84375 7.36458,4.86979 7.6875,4.92188 C8.01042,4.97396 8.30729,5.05208 8.57813,5.15625 M10.4531,4.98438 L11.4531,4.98438 L11.4531,11 L10.4531,11 L10.4531,4.98438 M10.4531,2.64063 L11.4531,2.64063 L11.4531,3.89063 L10.4531,3.89063 L10.4531,2.64063 M18.1875,6.14063 C18.4375,5.69271 18.7344,5.36458 19.0781,5.15625 C19.4219,4.94792 19.8281,4.84375 20.2969,4.84375 C20.9219,4.84375 21.4036,5.0625 21.7422,5.5 C22.0807,5.9375 22.25,6.5625 22.25,7.375 L22.25,11 L21.25,11 L21.25,7.40625 C21.25,6.82292 21.1484,6.39323 20.9453,6.11719 C20.7422,5.84115 20.4323,5.70313 20.0156,5.70313 C19.5052,5.70313 19.1016,5.8724 18.8047,6.21094 C18.5078,6.54948 18.3594,7.01042 18.3594,7.59375 L18.3594,11 L17.3594,11 L17.3594,7.40625 C17.3594,6.82292 17.2578,6.39323 17.0547,6.11719 C16.8516,5.84115 16.5365,5.70313 16.1094,5.70313 C15.6094,5.70313 15.2109,5.8724 14.9141,6.21094 C14.6172,6.54948 14.4688,7.01042 14.4688,7.59375 L14.4688,11 L13.4688,11 L13.4688,4.98438 L14.4688,4.98438 L14.4688,5.92188 C14.6875,5.54688 14.9557,5.27344 15.2734,5.10156 C15.5911,4.92969 15.9635,4.84375 16.3906,4.84375 C16.8281,4.84375 17.2005,4.95313 17.5078,5.17188 C17.8151,5.39063 18.0417,5.71354 18.1875,6.14063 "/>
</g>

<g fill="none" stroke="#000000" stroke-opacity="1" stroke-width="1" stroke-linecap="square" stroke-linejoin="bevel" transform="matrix(2,0,0,2,344.308,10)"
font-family="sans" font-size="11" font-weight="100" font-style="normal" 
>
</g>

<g fill="none" stroke="#000000" stroke-opacity="1" stroke-width="1" stroke-linecap="square" stroke-linejoin="bevel" transform="matrix(2,0,0,2,344.308,10)"
font-family="Ubuntu" font-size="11" font-weight="400" font-style="normal" 
>
</g>

<g fill="none" stroke="#000000" stroke-opacity="1" stroke-width="1" stroke-linecap="square" stroke-linejoin="bevel" transform="matrix(2,0,0,2,-15,167)"
font-family="Ubuntu" font-size="11" font-weight="400" font-style="normal" 
>
</g>

<g fill="none" stroke="#000000" stroke-opacity="1" stroke-width="1" stroke-linecap="square" stroke-linejoin="bevel" transform="matrix(2,0,0,2,-15,167)"
font-family="Ubuntu" font-size="11" font-weight="400" font-style="normal" 
>
</g>

<g fill="none" stroke="#000000" stroke-opacity="1" stroke-width="1" stroke-linecap="square" stroke-linejoin="bevel" transform="matrix(2,0,0,2,-15,167)"
font-family="Ubuntu" font-size="11" font-weight="400" font-style="normal" 
>
</g>

<g fill="none" stroke="#000000" stroke-opacity="1" stroke-width="1" stroke-linecap="square" stroke-linejoin="round" transform="matrix(2,0,0,2,-15,167)"
font-family="Ubuntu" font-size="11" font-weight="400" font-style="normal" 
>
<ellipse cx="64.746" cy="-34" rx="48.244" ry="17.5"/>
</g>

<g fill="none" stroke="#000000" stroke-opacity="1" stroke-width="1" stroke-linecap="square" stroke-linejoin="bevel" transform="matrix(2,0,0,2,-15,167)"
font-family="Ubuntu" font-size="11" font-weight="400" font-style="normal" 
>
</g>

<g fill="none" stroke="#000000" stroke-opacity="1" stroke-width="1" stroke-linecap="square" stroke-linejoin="bevel" transform="matrix(2,0,0,2,55.8826,85)"
font-family="Ubuntu" font-size="11" font-weight="400" font-style="normal" 
>
</g>

<g fill="none" stroke="#000000" stroke-opacity="1" stroke-width="1" stroke-linecap="square" stroke-linejoin="bevel" transform="matrix(2,0,0,2,55.8826,85)"
font-family="sans" font-size="11" font-weight="100" font-style="normal" 
>
</g>

<g fill="#000000" fill-opacity="1" stroke="#000000" stroke-opacity="1" stroke-width="1" stroke-linecap="square" stroke-linejoin="round" transform="matrix(2,0,0,2,55.8826,85)"
font-family="sans" font-size="11" font-weight="100" font-style="normal" 
>
<path vector-effect="none" fill-rule="nonzero" d="M2.79688,2.98438 L3.70313,2.98438 L0.90625,12.0156 L0,12.0156 L2.79688,2.98438 M8.57813,5.15625 L8.57813,6.09375 C8.29688,5.94792 8.00521,5.84115 7.70313,5.77344 C7.40104,5.70573 7.08854,5.67188 6.76563,5.67188 C6.27604,5.67188 5.90885,5.7474 5.66406,5.89844 C5.41927,6.04948 5.29688,6.27083 5.29688,6.5625 C5.29688,6.79167 5.38542,6.97135 5.5625,7.10156 C5.73958,7.23177 6.09375,7.35938 6.625,7.48438 L6.95313,7.5625 C7.66146,7.70833 8.16146,7.91927 8.45313,8.19531 C8.74479,8.47135 8.89063,8.85417 8.89063,9.34375 C8.89063,9.89583 8.67188,10.3359 8.23438,10.6641 C7.79688,10.9922 7.1875,11.1563 6.40625,11.1563 C6.08333,11.1563 5.7474,11.125 5.39844,11.0625 C5.04948,11 4.68229,10.9063 4.29688,10.7813 L4.29688,9.76563 C4.66146,9.95313 5.02083,10.0938 5.375,10.1875 C5.72917,10.2813 6.08333,10.3281 6.4375,10.3281 C6.89583,10.3281 7.25,10.2474 7.5,10.0859 C7.75,9.92448 7.875,9.70313 7.875,9.42188 C7.875,9.15104 7.78646,8.94271 7.60938,8.79688 C7.43229,8.65104 7.03646,8.51563 6.42188,8.39063 L6.07813,8.29688 C5.46354,8.17188 5.02083,7.97656 4.75,7.71094 C4.47917,7.44531 4.34375,7.07813 4.34375,6.60938 C4.34375,6.04688 4.54427,5.61198 4.94531,5.30469 C5.34635,4.9974 5.91667,4.84375 6.65625,4.84375 C7.02083,4.84375 7.36458,4.86979 7.6875,4.92188 C8.01042,4.97396 8.30729,5.05208 8.57813,5.15625 M10.4531,4.98438 L11.4531,4.98438 L11.4531,11 L10.4531,11 L10.4531,4.98438 M10.4531,2.64063 L11.4531,2.64063 L11.4531,3.89063 L10.4531,3.89063 L10.4531,2.64063 M18.1875,6.14063 C18.4375,5.69271 18.7344,5.36458 19.0781,5.15625 C19.4219,4.94792 19.8281,4.84375 20.2969,4.84375 C20.9219,4.84375 21.4036,5.0625 21.7422,5.5 C22.0807,5.9375 22.25,6.5625 22.25,7.375 L22.25,11 L21.25,11 L21.25,7.40625 C21.25,6.82292 21.1484,6.39323 20.9453,6.11719 C20.7422,5.84115 20.4323,5.70313 20.0156,5.70313 C19.5052,5.70313 19.1016,5.8724 18.8047,6.21094 C18.5078,6.54948 18.3594,7.01042 18.3594,7.59375 L18.3594,11 L17.3594,11 L17.3594,7.40625 C17.3594,6.82292 17.2578,6.39323 17.0547,6.11719 C16.8516,5.84115 16.5365,5.70313 16.1094,5.70313 C15.6094,5.70313 15.2109,5.8724 14.9141,6.21094 C14.6172,6.54948 14.4688,7.01042 14.4688,7.59375 L14.4688,11 L13.4688,11 L13.4688,4.98438 L14.4688,4.98438 L14.4688,5.92188 C14.6875,5.54688 14.9557,5.27344 15.2734,5.10156 C15.5911,4.92969 15.9635,4.84375 16.3906,4.84375 C16.8281,4.84375 17.2005,4.95313 17.5078,5.17188 C17.8151,5.39063 18.0417,5.71354 18.1875,6.14063 M25.9688,2.98438 L26.875,2.98438 L24.0781,12.0156 L23.1719,12.0156 L25.9688,2.98438 M28.8906,3.28125 L28.8906,4.98438 L30.9219,4.98438 L30.9219,5.75 L28.8906,5.75 L28.8906,9.01563 C28.8906,9.50521 28.9583,9.82031 29.0938,9.96094 C29.2292,10.1016 29.5,10.1719 29.9063,10.1719 L30.9219,10.1719 L30.9219,11 L29.9063,11 C29.1458,11 28.6198,10.8568 28.3281,10.5703 C28.0365,10.2839 27.8906,9.76563 27.8906,9.01563 L27.8906,5.75 L27.1719,5.75 L27.1719,4.98438 L27.8906,4.98438 L27.8906,3.28125 L28.8906,3.28125 M34.9531,7.96875 C34.1615,7.96875 33.612,8.0625 33.3047,8.25 C32.9974,8.4375 32.8438,8.75 32.8438,9.1875 C32.8438,9.53125 32.9583,9.80729 33.1875,10.0156 C33.4167,10.224 33.7292,10.3281 34.125,10.3281 C34.6771,10.3281 35.1172,10.1328 35.4453,9.74219 C35.7734,9.35156 35.9375,8.83854 35.9375,8.20313 L35.9375,7.96875 L34.9531,7.96875 M36.9219,7.5625 L36.9219,11 L35.9375,11 L35.9375,10.0938 C35.7188,10.4583 35.4401,10.7266 35.1016,10.8984 C34.763,11.0703 34.349,11.1563 33.8594,11.1563 C33.2448,11.1563 32.7552,10.9844 32.3906,10.6406 C32.026,10.2969 31.8438,9.83333 31.8438,9.25 C31.8438,8.57292 32.0703,8.0625 32.5234,7.71875 C32.9766,7.375 33.6563,7.20313 34.5625,7.20313 L35.9375,7.20313 L35.9375,7.10938 C35.9375,6.65104 35.7891,6.29688 35.4922,6.04688 C35.1953,5.79688 34.776,5.67188 34.2344,5.67188 C33.8906,5.67188 33.5547,5.71354 33.2266,5.79688 C32.8984,5.88021 32.5833,6.00521 32.2813,6.17188 L32.2813,5.26563 C32.6458,5.11979 33,5.01302 33.3438,4.94531 C33.6875,4.8776 34.0156,4.84375 34.3281,4.84375 C35.2031,4.84375 35.8542,5.06771 36.2813,5.51563 C36.7083,5.96354 36.9219,6.64583 36.9219,7.5625 M38.9531,2.64063 L39.9531,2.64063 L39.9531,11 L38.9531,11 L38.9531,2.64063 M41.9688,2.64063 L42.9688,2.64063 L42.9688,7.57813 L45.9063,4.98438 L47.1719,4.98438 L43.9844,7.79688 L47.3125,11 L46.0156,11 L42.9688,8.0625 L42.9688,11 L41.9688,11 L41.9688,2.64063 M53.5156,7.75 L53.5156,8.23438 L48.9688,8.23438 C49.0104,8.91146 49.2135,9.42708 49.5781,9.78125 C49.9427,10.1354 50.4531,10.3125 51.1094,10.3125 C51.4948,10.3125 51.8646,10.2656 52.2188,10.1719 C52.5729,10.0781 52.9271,9.94271 53.2813,9.76563 L53.2813,10.6875 C52.9271,10.8438 52.5625,10.9609 52.1875,11.0391 C51.8125,11.1172 51.4375,11.1563 51.0625,11.1563 C50.0938,11.1563 49.3307,10.8776 48.7734,10.3203 C48.2161,9.76302 47.9375,9.00521 47.9375,8.04688 C47.9375,7.06771 48.2031,6.28906 48.7344,5.71094 C49.2656,5.13281 49.9844,4.84375 50.8906,4.84375 C51.6927,4.84375 52.3307,5.10417 52.8047,5.625 C53.2786,6.14583 53.5156,6.85417 53.5156,7.75 M52.5156,7.45313 C52.5156,6.91146 52.3672,6.47917 52.0703,6.15625 C51.7734,5.83333 51.3802,5.67188 50.8906,5.67188 C50.3385,5.67188 49.8984,5.82813 49.5703,6.14063 C49.2422,6.45313 49.0521,6.89063 49,7.45313 L52.5156,7.45313 M58.6094,5.90625 C58.5052,5.84375 58.388,5.79688 58.2578,5.76563 C58.1276,5.73438 57.9844,5.71875 57.8281,5.71875 C57.2656,5.71875 56.8359,5.90104 56.5391,6.26563 C56.2422,6.63021 56.0938,7.15104 56.0938,7.82813 L56.0938,11 L55.0938,11 L55.0938,4.98438 L56.0938,4.98438 L56.0938,5.92188 C56.2917,5.55729 56.5573,5.28646 56.8906,5.10938 C57.224,4.93229 57.6302,4.84375 58.1094,4.84375 C58.1823,4.84375 58.2578,4.84635 58.3359,4.85156 C58.4141,4.85677 58.5052,4.86979 58.6094,4.89063 L58.6094,5.90625"/>
</g>

<g fill="none" stroke="#000000" stroke-opacity="1" stroke-width="1" stroke-linecap="square" stroke-linejoin="bevel" transform="matrix(2,0,0,2,55.8826,85)"
font-family="sans" font-size="11" font-weight="100" font-style="normal" 
>
</g>

<g fill="none" stroke="#000000" stroke-opacity="1" stroke-width="1" stroke-linecap="square" stroke-linejoin="bevel" transform="matrix(2,0,0,2,55.8826,85)"
font-family="Ubuntu" font-size="11" font-weight="400" font-style="normal" 
>
</g>

<g fill="none" stroke="#000000" stroke-opacity="1" stroke-width="1" stroke-linecap="square" stroke-linejoin="bevel" transform="matrix(2,0,0,2,-15,167)"
font-family="Ubuntu" font-size="11" font-weight="400" font-style="normal" 
>
</g>

<g fill="none" stroke="#000000" stroke-opacity="1" stroke-width="1" stroke-linecap="square" stroke-linejoin="bevel" transform="matrix(2,0,0,2,-15,167)"
font-family="Ubuntu" font-size="11" font-weight="400" font-style="normal" 
>
</g>

<g fill="none" stroke="#000000" stroke-opacity="1" stroke-width="1" stroke-linecap="square" stroke-linejoin="bevel" transform="matrix(2,0,0,2,-15,167)"
font-family="Ubuntu" font-size="11" font-weight="400" font-style="normal" 
>
</g>

<g fill="none" stroke="#000000" stroke-opacity="1" stroke-width="1" stroke-linecap="square" stroke-linejoin="round" transform="matrix(2,0,0,2,-15,167)"
font-family="Ubuntu" font-size="11" font-weight="400" font-style="normal" 
>
<ellipse cx="314.49" cy="-34" rx="51.4948" ry="17.5"/>
</g>

<g fill="none" stroke="#000000" stroke-opacity="1" stroke-width="1" stroke-linecap="square" stroke-linejoin="bevel" transform="matrix(2,0,0,2,-15,167)"
font-family="Ubuntu" font-size="11" font-weight="400" font-style="normal" 
>
</g>

<g fill="none" stroke="#000000" stroke-opacity="1" stroke-width="1" stroke-linecap="square" stroke-linejoin="bevel" transform="matrix(2,0,0,2,550.199,85)"
font-family="Ubuntu" font-size="11" font-weight="400" font-style="normal" 
>
</g>

<g fill="none" stroke="#000000" stroke-opacity="1" stroke-width="1" stroke-linecap="square" stroke-linejoin="bevel" transform="matrix(2,0,0,2,550.199,85)"
font-family="sans" font-size="11" font-weight="100" font-style="normal" 
>
</g>

<g fill="#000000" fill-opacity="1" stroke="#000000" stroke-opacity="1" stroke-width="1" stroke-linecap="square" stroke-linejoin="round" transform="matrix(2,0,0,2,550.199,85)"
font-family="sans" font-size="11" font-weight="100" font-style="normal" 
>
<path vector-effect="none" fill-rule="nonzero" d="M2.79688,2.98438 L3.70313,2.98438 L0.90625,12.0156 L0,12.0156 L2.79688,2.98438 M8.57813,5.15625 L8.57813,6.09375 C8.29688,5.94792 8.00521,5.84115 7.70313,5.77344 C7.40104,5.70573 7.08854,5.67188 6.76563,5.67188 C6.27604,5.67188 5.90885,5.7474 5.66406,5.89844 C5.41927,6.04948 5.29688,6.27083 5.29688,6.5625 C5.29688,6.79167 5.38542,6.97135 5.5625,7.10156 C5.73958,7.23177 6.09375,7.35938 6.625,7.48438 L6.95313,7.5625 C7.66146,7.70833 8.16146,7.91927 8.45313,8.19531 C8.74479,8.47135 8.89063,8.85417 8.89063,9.34375 C8.89063,9.89583 8.67188,10.3359 8.23438,10.6641 C7.79688,10.9922 7.1875,11.1563 6.40625,11.1563 C6.08333,11.1563 5.7474,11.125 5.39844,11.0625 C5.04948,11 4.68229,10.9063 4.29688,10.7813 L4.29688,9.76563 C4.66146,9.95313 5.02083,10.0938 5.375,10.1875 C5.72917,10.2813 6.08333,10.3281 6.4375,10.3281 C6.89583,10.3281 7.25,10.2474 7.5,10.0859 C7.75,9.92448 7.875,9.70313 7.875,9.42188 C7.875,9.15104 7.78646,8.94271 7.60938,8.79688 C7.43229,8.65104 7.03646,8.51563 6.42188,8.39063 L6.07813,8.29688 C5.46354,8.17188 5.02083,7.97656 4.75,7.71094 C4.47917,7.44531 4.34375,7.07813 4.34375,6.60938 C4.34375,6.04688 4.54427,5.61198 4.94531,5.30469 C5.34635,4.9974 5.91667,4.84375 6.65625,4.84375 C7.02083,4.84375 7.36458,4.86979 7.6875,4.92188 C8.01042,4.97396 8.30729,5.05208 8.57813,5.15625 M10.4531,4.98438 L11.4531,4.98438 L11.4531,11 L10.4531,11 L10.4531,4.98438 M10.4531,2.64063 L11.4531,2.64063 L11.4531,3.89063 L10.4531,3.89063 L10.4531,2.64063 M18.1875,6.14063 C18.4375,5.69271 18.7344,5.36458 19.0781,5.15625 C19.4219,4.94792 19.8281,4.84375 20.2969,4.84375 C20.9219,4.84375 21.4036,5.0625 21.7422,5.5 C22.0807,5.9375 22.25,6.5625 22.25,7.375 L22.25,11 L21.25,11 L21.25,7.40625 C21.25,6.82292 21.1484,6.39323 20.9453,6.11719 C20.7422,5.84115 20.4323,5.70313 20.0156,5.70313 C19.5052,5.70313 19.1016,5.8724 18.8047,6.21094 C18.5078,6.54948 18.3594,7.01042 18.3594,7.59375 L18.3594,11 L17.3594,11 L17.3594,7.40625 C17.3594,6.82292 17.2578,6.39323 17.0547,6.11719 C16.8516,5.84115 16.5365,5.70313 16.1094,5.70313 C15.6094,5.70313 15.2109,5.8724 14.9141,6.21094 C14.6172,6.54948 14.4688,7.01042 14.4688,7.59375 L14.4688,11 L13.4688,11 L13.4688,4.98438 L14.4688,4.98438 L14.4688,5.92188 C14.6875,5.54688 14.9557,5.27344 15.2734,5.10156 C15.5911,4.92969 15.9635,4.84375 16.3906,4.84375 C16.8281,4.84375 17.2005,4.95313 17.5078,5.17188 C17.8151,5.39063 18.0417,5.71354 18.1875,6.14063 M25.9688,2.98438 L26.875,2.98438 L24.0781,12.0156 L23.1719,12.0156 L25.9688,2.98438 M28.8906,3.28125 L28.8906,4.98438 L30.9219,4.98438 L30.9219,5.75 L28.8906,5.75 L28.8906,9.01563 C28.8906,9.50521 28.9583,9.82031 29.0938,9.96094 C29.2292,10.1016 29.5,10.1719 29.9063,10.1719 L30.9219,10.1719 L30.9219,11 L29.9063,11 C29.1458,11 28.6198,10.8568 28.3281,10.5703 C28.0365,10.2839 27.8906,9.76563 27.8906,9.01563 L27.8906,5.75 L27.1719,5.75 L27.1719,4.98438 L27.8906,4.98438 L27.8906,3.28125 L28.8906,3.28125 M32.125,8.625 L32.125,4.98438 L33.1094,4.98438 L33.1094,8.59375 C33.1094,9.15625 33.2214,9.58073 33.4453,9.86719 C33.6693,10.1536 34,10.2969 34.4375,10.2969 C34.9792,10.2969 35.4036,10.1276 35.7109,9.78906 C36.0182,9.45052 36.1719,8.98438 36.1719,8.39063 L36.1719,4.98438 L37.1563,4.98438 L37.1563,11 L36.1719,11 L36.1719,10.0781 C35.9323,10.4427 35.6536,10.7135 35.3359,10.8906 C35.0182,11.0677 34.651,11.1563 34.2344,11.1563 C33.5469,11.1563 33.0234,10.9401 32.6641,10.5078 C32.3047,10.0755 32.125,9.44792 32.125,8.625 M42.6719,5.90625 C42.5677,5.84375 42.4505,5.79688 42.3203,5.76563 C42.1901,5.73438 42.0469,5.71875 41.8906,5.71875 C41.3281,5.71875 40.8984,5.90104 40.6016,6.26563 C40.3047,6.63021 40.1563,7.15104 40.1563,7.82813 L40.1563,11 L39.1563,11 L39.1563,4.98438 L40.1563,4.98438 L40.1563,5.92188 C40.3542,5.55729 40.6198,5.28646 40.9531,5.10938 C41.2865,4.93229 41.6927,4.84375 42.1719,4.84375 C42.2448,4.84375 42.3203,4.84635 42.3984,4.85156 C42.4766,4.85677 42.5677,4.86979 42.6719,4.89063 L42.6719,5.90625 M44.6875,3.28125 L44.6875,4.98438 L46.7188,4.98438 L46.7188,5.75 L44.6875,5.75 L44.6875,9.01563 C44.6875,9.50521 44.7552,9.82031 44.8906,9.96094 C45.026,10.1016 45.2969,10.1719 45.7031,10.1719 L46.7188,10.1719 L46.7188,11 L45.7031,11 C44.9427,11 44.4167,10.8568 44.125,10.5703 C43.8333,10.2839 43.6875,9.76563 43.6875,9.01563 L43.6875,5.75 L42.9688,5.75 L42.9688,4.98438 L43.6875,4.98438 L43.6875,3.28125 L44.6875,3.28125 M48.0156,2.64063 L49.0156,2.64063 L49.0156,11 L48.0156,11 L48.0156,2.64063 M56.2188,7.75 L56.2188,8.23438 L51.6719,8.23438 C51.7135,8.91146 51.9167,9.42708 52.2813,9.78125 C52.6458,10.1354 53.1563,10.3125 53.8125,10.3125 C54.1979,10.3125 54.5677,10.2656 54.9219,10.1719 C55.276,10.0781 55.6302,9.94271 55.9844,9.76563 L55.9844,10.6875 C55.6302,10.8438 55.2656,10.9609 54.8906,11.0391 C54.5156,11.1172 54.1406,11.1563 53.7656,11.1563 C52.7969,11.1563 52.0339,10.8776 51.4766,10.3203 C50.9193,9.76302 50.6406,9.00521 50.6406,8.04688 C50.6406,7.06771 50.9063,6.28906 51.4375,5.71094 C51.9688,5.13281 52.6875,4.84375 53.5938,4.84375 C54.3958,4.84375 55.0339,5.10417 55.5078,5.625 C55.9818,6.14583 56.2188,6.85417 56.2188,7.75 M55.2188,7.45313 C55.2188,6.91146 55.0703,6.47917 54.7734,6.15625 C54.4766,5.83333 54.0833,5.67188 53.5938,5.67188 C53.0417,5.67188 52.6016,5.82813 52.2734,6.14063 C51.9453,6.45313 51.7552,6.89063 51.7031,7.45313 L55.2188,7.45313 M58.1563,10.0938 L59.9375,10.0938 L59.9375,3.96875 L58,4.35938 L58,3.375 L59.9219,2.98438 L61.0156,2.98438 L61.0156,10.0938 L62.7813,10.0938 L62.7813,11 L58.1563,11 L58.1563,10.0938"/>
</g>

<g fill="none" stroke="#000000" stroke-opacity="1" stroke-width="1" stroke-linecap="square" stroke-linejoin="bevel" transform="matrix(2,0,0,2,550.199,85)"
font-family="sans" font-size="11" font-weight="100" font-style="normal" 
>
</g>

<g fill="none" stroke="#000000" stroke-opacity="1" stroke-width="1" stroke-linecap="square" stroke-linejoin="bevel" transform="matrix(2,0,0,2,550.199,85)"
font-family="Ubuntu" font-size="11" font-weight="400" font-style="normal" 
>
</g>

<g fill="none" stroke="#000000" stroke-opacity="1" stroke-width="1" stroke-linecap="square" stroke-linejoin="bevel" transform="matrix(2,0,0,2,-15,167)"
font-family="Ubuntu" font-size="11" font-weight="400" font-style="normal" 
>
</g>

<g fill="none" stroke="#000000" stroke-opacity="1" stroke-width="1" stroke-linecap="square" stroke-linejoin="bevel" transform="matrix(2,0,0,2,-15,167)"
font-family="Ubuntu" font-size="11" font-weight="400" font-style="normal" 
>
</g>

<g fill="none" stroke="#000000" stroke-opacity="1" stroke-width="1" stroke-linecap="square" stroke-linejoin="bevel" transform="matrix(2,0,0,2,-15,167)"
font-family="Ubuntu" font-size="11" font-weight="400" font-style="normal" 
>
</g>

<g fill="none" stroke="#000000" stroke-opacity="1" stroke-width="1" stroke-linecap="square" stroke-linejoin="round" transform="matrix(2,0,0,2,-15,167)"
font-family="Ubuntu" font-size="11" font-weight="400" font-style="normal" 
>
<ellipse cx="64.746" cy="-34" rx="48.244" ry="17.5"/>
</g>

<g fill="none" stroke="#000000" stroke-opacity="1" stroke-width="1" stroke-linecap="square" stroke-linejoin="bevel" transform="matrix(2,0,0,2,-15,167)"
font-family="Ubuntu" font-size="11" font-weight="400" font-style="normal" 
>
</g>

<g fill="none" stroke="#000000" stroke-opacity="1" stroke-width="1" stroke-linecap="square" stroke-linejoin="bevel" transform="matrix(2,0,0,2,55.8826,85)"
font-family="Ubuntu" font-size="11" font-weight="400" font-style="normal" 
>
</g>

<g fill="none" stroke="#000000" stroke-opacity="1" stroke-width="1" stroke-linecap="square" stroke-linejoin="bevel" transform="matrix(2,0,0,2,55.8826,85)"
font-family="sans" font-size="11" font-weight="100" font-style="normal" 
>
</g>

<g fill="#000000" fill-opacity="1" stroke="#000000" stroke-opacity="1" stroke-width="1" stroke-linecap="square" stroke-linejoin="round" transform="matrix(2,0,0,2,55.8826,85)"
font-family="sans" font-size="11" font-weight="100" font-style="normal" 
>
<path vector-effect="none" fill-rule="nonzero" d="M2.79688,2.98438 L3.70313,2.98438 L0.90625,12.0156 L0,12.0156 L2.79688,2.98438 M8.57813,5.15625 L8.57813,6.09375 C8.29688,5.94792 8.00521,5.84115 7.70313,5.77344 C7.40104,5.70573 7.08854,5.67188 6.76563,5.67188 C6.27604,5.67188 5.90885,5.7474 5.66406,5.89844 C5.41927,6.04948 5.29688,6.27083 5.29688,6.5625 C5.29688,6.79167 5.38542,6.97135 5.5625,7.10156 C5.73958,7.23177 6.09375,7.35938 6.625,7.48438 L6.95313,7.5625 C7.66146,7.70833 8.16146,7.91927 8.45313,8.19531 C8.74479,8.47135 8.89063,8.85417 8.89063,9.34375 C8.89063,9.89583 8.67188,10.3359 8.23438,10.6641 C7.79688,10.9922 7.1875,11.1563 6.40625,11.1563 C6.08333,11.1563 5.7474,11.125 5.39844,11.0625 C5.04948,11 4.68229,10.9063 4.29688,10.7813 L4.29688,9.76563 C4.66146,9.95313 5.02083,10.0938 5.375,10.1875 C5.72917,10.2813 6.08333,10.3281 6.4375,10.3281 C6.89583,10.3281 7.25,10.2474 7.5,10.0859 C7.75,9.92448 7.875,9.70313 7.875,9.42188 C7.875,9.15104 7.78646,8.94271 7.60938,8.79688 C7.43229,8.65104 7.03646,8.51563 6.42188,8.39063 L6.07813,8.29688 C5.46354,8.17188 5.02083,7.97656 4.75,7.71094 C4.47917,7.44531 4.34375,7.07813 4.34375,6.60938 C4.34375,6.04688 4.54427,5.61198 4.94531,5.30469 C5.34635,4.9974 5.91667,4.84375 6.65625,4.84375 C7.02083,4.84375 7.36458,4.86979 7.6875,4.92188 C8.01042,4.97396 8.30729,5.05208 8.57813,5.15625 M10.4531,4.98438 L11.4531,4.98438 L11.4531,11 L10.4531,11 L10.4531,4.98438 M10.4531,2.64063 L11.4531,2.64063 L11.4531,3.89063 L10.4531,3.89063 L10.4531,2.64063 M18.1875,6.14063 C18.4375,5.69271 18.7344,5.36458 19.0781,5.15625 C19.4219,4.94792 19.8281,4.84375 20.2969,4.84375 C20.9219,4.84375 21.4036,5.0625 21.7422,5.5 C22.0807,5.9375 22.25,6.5625 22.25,7.375 L22.25,11 L21.25,11 L21.25,7.40625 C21.25,6.82292 21.1484,6.39323 20.9453,6.11719 C20.7422,5.84115 20.4323,5.70313 20.0156,5.70313 C19.5052,5.70313 19.1016,5.8724 18.8047,6.21094 C18.5078,6.54948 18.3594,7.01042 18.3594,7.59375 L18.3594,11 L17.3594,11 L17.3594,7.40625 C17.3594,6.82292 17.2578,6.39323 17.0547,6.11719 C16.8516,5.84115 16.5365,5.70313 16.1094,5.70313 C15.6094,5.70313 15.2109,5.8724 14.9141,6.21094 C14.6172,6.54948 14.4688,7.01042 14.4688,7.59375 L14.4688,11 L13.4688,11 L13.4688,4.98438 L14.4688,4.98438 L14.4688,5.92188 C14.6875,5.54688 14.9557,5.27344 15.2734,5.10156 C15.5911,4.92969 15.9635,4.84375 16.3906,4.84375 C16.8281,4.84375 17.2005,4.95313 17.5078,5.17188 C17.8151,5.39063 18.0417,5.71354 18.1875,6.14063 M25.9688,2.98438 L26.875,2.98438 L24.0781,12.0156 L23.1719,12.0156 L25.9688,2.98438 M28.8906,3.28125 L28.8906,4.98438 L30.9219,4.98438 L30.9219,5.75 L28.8906,5.75 L28.8906,9.01563 C28.8906,9.50521 28.9583,9.82031 29.0938,9.96094 C29.2292,10.1016 29.5,10.1719 29.9063,10.1719 L30.9219,10.1719 L30.9219,11 L29.9063,11 C29.1458,11 28.6198,10.8568 28.3281,10.5703 C28.0365,10.2839 27.8906,9.76563 27.8906,9.01563 L27.8906,5.75 L27.1719,5.75 L27.1719,4.98438 L27.8906,4.98438 L27.8906,3.28125 L28.8906,3.28125 M34.9531,7.96875 C34.1615,7.96875 33.612,8.0625 33.3047,8.25 C32.9974,8.4375 32.8438,8.75 32.8438,9.1875 C32.8438,9.53125 32.9583,9.80729 33.1875,10.0156 C33.4167,10.224 33.7292,10.3281 34.125,10.3281 C34.6771,10.3281 35.1172,10.1328 35.4453,9.74219 C35.7734,9.35156 35.9375,8.83854 35.9375,8.20313 L35.9375,7.96875 L34.9531,7.96875 M36.9219,7.5625 L36.9219,11 L35.9375,11 L35.9375,10.0938 C35.7188,10.4583 35.4401,10.7266 35.1016,10.8984 C34.763,11.0703 34.349,11.1563 33.8594,11.1563 C33.2448,11.1563 32.7552,10.9844 32.3906,10.6406 C32.026,10.2969 31.8438,9.83333 31.8438,9.25 C31.8438,8.57292 32.0703,8.0625 32.5234,7.71875 C32.9766,7.375 33.6563,7.20313 34.5625,7.20313 L35.9375,7.20313 L35.9375,7.10938 C35.9375,6.65104 35.7891,6.29688 35.4922,6.04688 C35.1953,5.79688 34.776,5.67188 34.2344,5.67188 C33.8906,5.67188 33.5547,5.71354 33.2266,5.79688 C32.8984,5.88021 32.5833,6.00521 32.2813,6.17188 L32.2813,5.26563 C32.6458,5.11979 33,5.01302 33.3438,4.94531 C33.6875,4.8776 34.0156,4.84375 34.3281,4.84375 C35.2031,4.84375 35.8542,5.06771 36.2813,5.51563 C36.7083,5.96354 36.9219,6.64583 36.9219,7.5625 M38.9531,2.64063 L39.9531,2.64063 L39.9531,11 L38.9531,11 L38.9531,2.64063 M41.9688,2.64063 L42.9688,2.64063 L42.9688,7.57813 L45.9063,4.98438 L47.1719,4.98438 L43.9844,7.79688 L47.3125,11 L46.0156,11 L42.9688,8.0625 L42.9688,11 L41.9688,11 L41.9688,2.64063 M53.5156,7.75 L53.5156,8.23438 L48.9688,8.23438 C49.0104,8.91146 49.2135,9.42708 49.5781,9.78125 C49.9427,10.1354 50.4531,10.3125 51.1094,10.3125 C51.4948,10.3125 51.8646,10.2656 52.2188,10.1719 C52.5729,10.0781 52.9271,9.94271 53.2813,9.76563 L53.2813,10.6875 C52.9271,10.8438 52.5625,10.9609 52.1875,11.0391 C51.8125,11.1172 51.4375,11.1563 51.0625,11.1563 C50.0938,11.1563 49.3307,10.8776 48.7734,10.3203 C48.2161,9.76302 47.9375,9.00521 47.9375,8.04688 C47.9375,7.06771 48.2031,6.28906 48.7344,5.71094 C49.2656,5.13281 49.9844,4.84375 50.8906,4.84375 C51.6927,4.84375 52.3307,5.10417 52.8047,5.625 C53.2786,6.14583 53.5156,6.85417 53.5156,7.75 M52.5156,7.45313 C52.5156,6.91146 52.3672,6.47917 52.0703,6.15625 C51.7734,5.83333 51.3802,5.67188 50.8906,5.67188 C50.3385,5.67188 49.8984,5.82813 49.5703,6.14063 C49.2422,6.45313 49.0521,6.89063 49,7.45313 L52.5156,7.45313 M58.6094,5.90625 C58.5052,5.84375 58.388,5.79688 58.2578,5.76563 C58.1276,5.73438 57.9844,5.71875 57.8281,5.71875 C57.2656,5.71875 56.8359,5.90104 56.5391,6.26563 C56.2422,6.63021 56.0938,7.15104 56.0938,7.82813 L56.0938,11 L55.0938,11 L55.0938,4.98438 L56.0938,4.98438 L56.0938,5.92188 C56.2917,5.55729 56.5573,5.28646 56.8906,5.10938 C57.224,4.93229 57.6302,4.84375 58.1094,4.84375 C58.1823,4.84375 58.2578,4.84635 58.3359,4.85156 C58.4141,4.85677 58.5052,4.86979 58.6094,4.89063 L58.6094,5.90625"/>
</g>

<g fill="none" stroke="#000000" stroke-opacity="1" stroke-width="1" stroke-linecap="square" stroke-linejoin="bevel" transform="matrix(2,0,0,2,55.8826,85)"
font-family="sans" font-size="11" font-weight="100" font-style="normal" 
>
</g>

<g fill="none" stroke="#000000" stroke-opacity="1" stroke-width="1" stroke-linecap="square" stroke-linejoin="bevel" transform="matrix(2,0,0,2,55.8826,85)"
font-family="Ubuntu" font-size="11" font-weight="400" font-style="normal" 
>
</g>

<g fill="none" stroke="#000000" stroke-opacity="1" stroke-width="1" stroke-linecap="square" stroke-linejoin="bevel" transform="matrix(2,0,0,2,-15,167)"
font-family="Ubuntu" font-size="11" font-weight="400" font-style="normal" 
>
</g>

<g fill="none" stroke="#000000" stroke-opacity="1" stroke-width="1" stroke-linecap="square" stroke-linejoin="bevel" transform="matrix(2,0,0,2,-15,167)"
font-family="Ubuntu" font-size="11" font-weight="400" font-style="normal" 
>
</g>

<g fill="none" stroke="#000000" stroke-opacity="1" stroke-width="1" stroke-linecap="square" stroke-linejoin="bevel" transform="matrix(2,0,0,2,-15,167)"
font-family="Ubuntu" font-size="11" font-weight="400" font-style="normal" 
>
</g>

<g fill="none" stroke="#000000" stroke-opacity="1" stroke-width="1" stroke-linecap="square" stroke-linejoin="round" transform="matrix(2,0,0,2,-15,167)"
font-family="Ubuntu" font-size="11" font-weight="400" font-style="normal" 
>
<ellipse cx="314.49" cy="-34" rx="51.4948" ry="17.5"/>
</g>

<g fill="none" stroke="#000000" stroke-opacity="1" stroke-width="1" stroke-linecap="square" stroke-linejoin="bevel" transform="matrix(2,0,0,2,-15,167)"
font-family="Ubuntu" font-size="11" font-weight="400" font-style="normal" 
>
</g>

<g fill="none" stroke="#000000" stroke-opacity="1" stroke-width="1" stroke-linecap="square" stroke-linejoin="bevel" transform="matrix(2,0,0,2,550.199,85)"
font-family="Ubuntu" font-size="11" font-weight="400" font-style="normal" 
>
</g>

<g fill="none" stroke="#000000" stroke-opacity="1" stroke-width="1" stroke-linecap="square" stroke-linejoin="bevel" transform="matrix(2,0,0,2,550.199,85)"
font-family="sans" font-size="11" font-weight="100" font-style="normal" 
>
</g>

<g fill="#000000" fill-opacity="1" stroke="#000000" stroke-opacity="1" stroke-width="1" stroke-linecap="square" stroke-linejoin="round" transform="matrix(2,0,0,2,550.199,85)"
font-family="sans" font-size="11" font-weight="100" font-style="normal" 
>
<path vector-effect="none" fill-rule="nonzero" d="M2.79688,2.98438 L3.70313,2.98438 L0.90625,12.0156 L0,12.0156 L2.79688,2.98438 M8.57813,5.15625 L8.57813,6.09375 C8.29688,5.94792 8.00521,5.84115 7.70313,5.77344 C7.40104,5.70573 7.08854,5.67188 6.76563,5.67188 C6.27604,5.67188 5.90885,5.7474 5.66406,5.89844 C5.41927,6.04948 5.29688,6.27083 5.29688,6.5625 C5.29688,6.79167 5.38542,6.97135 5.5625,7.10156 C5.73958,7.23177 6.09375,7.35938 6.625,7.48438 L6.95313,7.5625 C7.66146,7.70833 8.16146,7.91927 8.45313,8.19531 C8.74479,8.47135 8.89063,8.85417 8.89063,9.34375 C8.89063,9.89583 8.67188,10.3359 8.23438,10.6641 C7.79688,10.9922 7.1875,11.1563 6.40625,11.1563 C6.08333,11.1563 5.7474,11.125 5.39844,11.0625 C5.04948,11 4.68229,10.9063 4.29688,10.7813 L4.29688,9.76563 C4.66146,9.95313 5.02083,10.0938 5.375,10.1875 C5.72917,10.2813 6.08333,10.3281 6.4375,10.3281 C6.89583,10.3281 7.25,10.2474 7.5,10.0859 C7.75,9.92448 7.875,9.70313 7.875,9.42188 C7.875,9.15104 7.78646,8.94271 7.60938,8.79688 C7.43229,8.65104 7.03646,8.51563 6.42188,8.39063 L6.07813,8.29688 C5.46354,8.17188 5.02083,7.97656 4.75,7.71094 C4.47917,7.44531 4.34375,7.07813 4.34375,6.60938 C4.34375,6.04688 4.54427,5.61198 4.94531,5.30469 C5.34635,4.9974 5.91667,4.84375 6.65625,4.84375 C7.02083,4.84375 7.36458,4.86979 7.6875,4.92188 C8.01042,4.97396 8.30729,5.05208 8.57813,5.15625 M10.4531,4.98438 L11.4531,4.98438 L11.4531,11 L10.4531,11 L10.4531,4.98438 M10.4531,2.64063 L11.4531,2.64063 L11.4531,3.89063 L10.4531,3.89063 L10.4531,2.64063 M18.1875,6.14063 C18.4375,5.69271 18.7344,5.36458 19.0781,5.15625 C19.4219,4.94792 19.8281,4.84375 20.2969,4.84375 C20.9219,4.84375 21.4036,5.0625 21.7422,5.5 C22.0807,5.9375 22.25,6.5625 22.25,7.375 L22.25,11 L21.25,11 L21.25,7.40625 C21.25,6.82292 21.1484,6.39323 20.9453,6.11719 C20.7422,5.84115 20.4323,5.70313 20.0156,5.70313 C19.5052,5.70313 19.1016,5.8724 18.8047,6.21094 C18.5078,6.54948 18.3594,7.01042 18.3594,7.59375 L18.3594,11 L17.3594,11 L17.3594,7.40625 C17.3594,6.82292 17.2578,6.39323 17.0547,6.11719 C16.8516,5.84115 16.5365,5.70313 16.1094,5.70313 C15.6094,5.70313 15.2109,5.8724 14.9141,6.21094 C14.6172,6.54948 14.4688,7.01042 14.4688,7.59375 L14.4688,11 L13.4688,11 L13.4688,4.98438 L14.4688,4.98438 L14.4688,5.92188 C14.6875,5.54688 14.9557,5.27344 15.2734,5.10156 C15.5911,4.92969 15.9635,4.84375 16.3906,4.84375 C16.8281,4.84375 17.2005,4.95313 17.5078,5.17188 C17.8151,5.39063 18.0417,5.71354 18.1875,6.14063 M25.9688,2.98438 L26.875,2.98438 L24.0781,12.0156 L23.1719,12.0156 L25.9688,2.98438 M28.8906,3.28125 L28.8906,4.98438 L30.9219,4.98438 L30.9219,5.75 L28.8906,5.75 L28.8906,9.01563 C28.8906,9.50521 28.9583,9.82031 29.0938,9.96094 C29.2292,10.1016 29.5,10.1719 29.9063,10.1719 L30.9219,10.1719 L30.9219,11 L29.9063,11 C29.1458,11 28.6198,10.8568 28.3281,10.5703 C28.0365,10.2839 27.8906,9.76563 27.8906,9.01563 L27.8906,5.75 L27.1719,5.75 L27.1719,4.98438 L27.8906,4.98438 L27.8906,3.28125 L28.8906,3.28125 M32.125,8.625 L32.125,4.98438 L33.1094,4.98438 L33.1094,8.59375 C33.1094,9.15625 33.2214,9.58073 33.4453,9.86719 C33.6693,10.1536 34,10.2969 34.4375,10.2969 C34.9792,10.2969 35.4036,10.1276 35.7109,9.78906 C36.0182,9.45052 36.1719,8.98438 36.1719,8.39063 L36.1719,4.98438 L37.1563,4.98438 L37.1563,11 L36.1719,11 L36.1719,10.0781 C35.9323,10.4427 35.6536,10.7135 35.3359,10.8906 C35.0182,11.0677 34.651,11.1563 34.2344,11.1563 C33.5469,11.1563 33.0234,10.9401 32.6641,10.5078 C32.3047,10.0755 32.125,9.44792 32.125,8.625 M42.6719,5.90625 C42.5677,5.84375 42.4505,5.79688 42.3203,5.76563 C42.1901,5.73438 42.0469,5.71875 41.8906,5.71875 C41.3281,5.71875 40.8984,5.90104 40.6016,6.26563 C40.3047,6.63021 40.1563,7.15104 40.1563,7.82813 L40.1563,11 L39.1563,11 L39.1563,4.98438 L40.1563,4.98438 L40.1563,5.92188 C40.3542,5.55729 40.6198,5.28646 40.9531,5.10938 C41.2865,4.93229 41.6927,4.84375 42.1719,4.84375 C42.2448,4.84375 42.3203,4.84635 42.3984,4.85156 C42.4766,4.85677 42.5677,4.86979 42.6719,4.89063 L42.6719,5.90625 M44.6875,3.28125 L44.6875,4.98438 L46.7188,4.98438 L46.7188,5.75 L44.6875,5.75 L44.6875,9.01563 C44.6875,9.50521 44.7552,9.82031 44.8906,9.96094 C45.026,10.1016 45.2969,10.1719 45.7031,10.1719 L46.7188,10.1719 L46.7188,11 L45.7031,11 C44.9427,11 44.4167,10.8568 44.125,10.5703 C43.8333,10.2839 43.6875,9.76563 43.6875,9.01563 L43.6875,5.75 L42.9688,5.75 L42.9688,4.98438 L43.6875,4.98438 L43.6875,3.28125 L44.6875,3.28125 M48.0156,2.64063 L49.0156,2.64063 L49.0156,11 L48.0156,11 L48.0156,2.64063 M56.2188,7.75 L56.2188,8.23438 L51.6719,8.23438 C51.7135,8.91146 51.9167,9.42708 52.2813,9.78125 C52.6458,10.1354 53.1563,10.3125 53.8125,10.3125 C54.1979,10.3125 54.5677,10.2656 54.9219,10.1719 C55.276,10.0781 55.6302,9.94271 55.9844,9.76563 L55.9844,10.6875 C55.6302,10.8438 55.2656,10.9609 54.8906,11.0391 C54.5156,11.1172 54.1406,11.1563 53.7656,11.1563 C52.7969,11.1563 52.0339,10.8776 51.4766,10.3203 C50.9193,9.76302 50.6406,9.00521 50.6406,8.04688 C50.6406,7.06771 50.9063,6.28906 51.4375,5.71094 C51.9688,5.13281 52.6875,4.84375 53.5938,4.84375 C54.3958,4.84375 55.0339,5.10417 55.5078,5.625 C55.9818,6.14583 56.2188,6.85417 56.2188,7.75 M55.2188,7.45313 C55.2188,6.91146 55.0703,6.47917 54.7734,6.15625 C54.4766,5.83333 54.0833,5.67188 53.5938,5.67188 C53.0417,5.67188 52.6016,5.82813 52.2734,6.14063 C51.9453,6.45313 51.7552,6.89063 51.7031,7.45313 L55.2188,7.45313 M58.1563,10.0938 L59.9375,10.0938 L59.9375,3.96875 L58,4.35938 L58,3.375 L59.9219,2.98438 L61.0156,2.98438 L61.0156,10.0938 L62.7813,10.0938 L62.7813,11 L58.1563,11 L58.1563,10.0938"/>
</g>

<g fill="none" stroke="#000000" stroke-opacity="1" stroke-width="1" stroke-linecap="square" stroke-linejoin="bevel" transform="matrix(2,0,0,2,550.199,85)"
font-family="sans" font-size="11" font-weight="100" font-style="normal" 
>
</g>

<g fill="none" stroke="#000000" stroke-opacity="1" stroke-width="1" stroke-linecap="square" stroke-linejoin="bevel" transform="matrix(2,0,0,2,550.199,85)"
font-family="Ubuntu" font-size="11" font-weight="400" font-style="normal" 
>
</g>

<g fill="none" stroke="#000000" stroke-opacity="1" stroke-width="1" stroke-linecap="square" stroke-linejoin="bevel" transform="matrix(2,0,0,2,-15,167)"
font-family="Ubuntu" font-size="11" font-weight="400" font-style="normal" 
>
</g>

<g fill="none" stroke="#000000" stroke-opacity="1" stroke-width="1" stroke-linecap="square" stroke-linejoin="bevel" transform="matrix(2,0,0,2,-15,167)"
font-family="Ubuntu" font-size="11" font-weight="400" font-style="normal" 
>
</g>

<g fill="none" stroke="#000000" stroke-opacity="1" stroke-width="1" stroke-linecap="square" stroke-linejoin="bevel" transform="matrix(2,0,0,2,-15,167)"
font-family="Ubuntu" font-size="11" font-weight="400" font-style="normal" 
>
</g>

<g fill="none" stroke="#000000" stroke-opacity="1" stroke-width="1" stroke-linecap="square" stroke-linejoin="round" transform="matrix(2,0,0,2,-15,167)"
font-family="Ubuntu" font-size="11" font-weight="400" font-style="normal" 
>
<path vector-effect="none" fill-rule="evenodd" d="M113.79,-34 C153.37,-34 209.32,-34 252.09,-34 "/>
</g>

<g fill="none" stroke="#000000" stroke-opacity="1" stroke-width="1" stroke-linecap="square" stroke-linejoin="bevel" transform="matrix(2,0,0,2,-15,167)"
font-family="Ubuntu" font-size="11" font-weight="400" font-style="normal" 
>
</g>

<g fill="none" stroke="#000000" stroke-opacity="1" stroke-width="1" stroke-linecap="square" stroke-linejoin="bevel" transform="matrix(2,0,0,2,247.964,70)"
font-family="Ubuntu" font-size="11" font-weight="400" font-style="normal" 
>
</g>

<g fill="none" stroke="#000000" stroke-opacity="1" stroke-width="1" stroke-linecap="square" stroke-linejoin="bevel" transform="matrix(2,0,0,2,247.964,70)"
font-family="sans" font-size="11" font-weight="100" font-style="normal" 
>
</g>

<g fill="#000000" fill-opacity="1" stroke="#000000" stroke-opacity="1" stroke-width="1" stroke-linecap="square" stroke-linejoin="round" transform="matrix(2,0,0,2,247.964,70)"
font-family="sans" font-size="11" font-weight="100" font-style="normal" 
>
<path vector-effect="none" fill-rule="nonzero" d="M2.79688,2.98438 L3.70313,2.98438 L0.90625,12.0156 L0,12.0156 L2.79688,2.98438 M8.57813,5.15625 L8.57813,6.09375 C8.29688,5.94792 8.00521,5.84115 7.70313,5.77344 C7.40104,5.70573 7.08854,5.67188 6.76563,5.67188 C6.27604,5.67188 5.90885,5.7474 5.66406,5.89844 C5.41927,6.04948 5.29688,6.27083 5.29688,6.5625 C5.29688,6.79167 5.38542,6.97135 5.5625,7.10156 C5.73958,7.23177 6.09375,7.35938 6.625,7.48438 L6.95313,7.5625 C7.66146,7.70833 8.16146,7.91927 8.45313,8.19531 C8.74479,8.47135 8.89063,8.85417 8.89063,9.34375 C8.89063,9.89583 8.67188,10.3359 8.23438,10.6641 C7.79688,10.9922 7.1875,11.1563 6.40625,11.1563 C6.08333,11.1563 5.7474,11.125 5.39844,11.0625 C5.04948,11 4.68229,10.9063 4.29688,10.7813 L4.29688,9.76563 C4.66146,9.95313 5.02083,10.0938 5.375,10.1875 C5.72917,10.2813 6.08333,10.3281 6.4375,10.3281 C6.89583,10.3281 7.25,10.2474 7.5,10.0859 C7.75,9.92448 7.875,9.70313 7.875,9.42188 C7.875,9.15104 7.78646,8.94271 7.60938,8.79688 C7.43229,8.65104 7.03646,8.51563 6.42188,8.39063 L6.07813,8.29688 C5.46354,8.17188 5.02083,7.97656 4.75,7.71094 C4.47917,7.44531 4.34375,7.07813 4.34375,6.60938 C4.34375,6.04688 4.54427,5.61198 4.94531,5.30469 C5.34635,4.9974 5.91667,4.84375 6.65625,4.84375 C7.02083,4.84375 7.36458,4.86979 7.6875,4.92188 C8.01042,4.97396 8.30729,5.05208 8.57813,5.15625 M10.4531,4.98438 L11.4531,4.98438 L11.4531,11 L10.4531,11 L10.4531,4.98438 M10.4531,2.64063 L11.4531,2.64063 L11.4531,3.89063 L10.4531,3.89063 L10.4531,2.64063 M18.1875,6.14063 C18.4375,5.69271 18.7344,5.36458 19.0781,5.15625 C19.4219,4.94792 19.8281,4.84375 20.2969,4.84375 C20.9219,4.84375 21.4036,5.0625 21.7422,5.5 C22.0807,5.9375 22.25,6.5625 22.25,7.375 L22.25,11 L21.25,11 L21.25,7.40625 C21.25,6.82292 21.1484,6.39323 20.9453,6.11719 C20.7422,5.84115 20.4323,5.70313 20.0156,5.70313 C19.5052,5.70313 19.1016,5.8724 18.8047,6.21094 C18.5078,6.54948 18.3594,7.01042 18.3594,7.59375 L18.3594,11 L17.3594,11 L17.3594,7.40625 C17.3594,6.82292 17.2578,6.39323 17.0547,6.11719 C16.8516,5.84115 16.5365,5.70313 16.1094,5.70313 C15.6094,5.70313 15.2109,5.8724 14.9141,6.21094 C14.6172,6.54948 14.4688,7.01042 14.4688,7.59375 L14.4688,11 L13.4688,11 L13.4688,4.98438 L14.4688,4.98438 L14.4688,5.92188 C14.6875,5.54688 14.9557,5.27344 15.2734,5.10156 C15.5911,4.92969 15.9635,4.84375 16.3906,4.84375 C16.8281,4.84375 17.2005,4.95313 17.5078,5.17188 C17.8151,5.39063 18.0417,5.71354 18.1875,6.14063 M25.9688,2.98438 L26.875,2.98438 L24.0781,12.0156 L23.1719,12.0156 L25.9688,2.98438 M28.8906,3.28125 L28.8906,4.98438 L30.9219,4.98438 L30.9219,5.75 L28.8906,5.75 L28.8906,9.01563 C28.8906,9.50521 28.9583,9.82031 29.0938,9.96094 C29.2292,10.1016 29.5,10.1719 29.9063,10.1719 L30.9219,10.1719 L30.9219,11 L29.9063,11 C29.1458,11 28.6198,10.8568 28.3281,10.5703 C28.0365,10.2839 27.8906,9.76563 27.8906,9.01563 L27.8906,5.75 L27.1719,5.75 L27.1719,4.98438 L27.8906,4.98438 L27.8906,3.28125 L28.8906,3.28125 M32.125,8.625 L32.125,4.98438 L33.1094,4.98438 L33.1094,8.59375 C33.1094,9.15625 33.2214,9.58073 33.4453,9.86719 C33.6693,10.1536 34,10.2969 34.4375,10.2969 C34.9792,10.2969 35.4036,10.1276 35.7109,9.78906 C36.0182,9.45052 36.1719,8.98438 36.1719,8.39063 L36.1719,4.98438 L37.1563,4.98438 L37.1563,11 L36.1719,11 L36.1719,10.0781 C35.9323,10.4427 35.6536,10.7135 35.3359,10.8906 C35.0182,11.0677 34.651,11.1563 34.2344,11.1563 C33.5469,11.1563 33.0234,10.9401 32.6641,10.5078 C32.3047,10.0755 32.125,9.44792 32.125,8.625 M42.6719,5.90625 C42.5677,5.84375 42.4505,5.79688 42.3203,5.76563 C42.1901,5.73438 42.0469,5.71875 41.8906,5.71875 C41.3281,5.71875 40.8984,5.90104 40.6016,6.26563 C40.3047,6.63021 40.1563,7.15104 40.1563,7.82813 L40.1563,11 L39.1563,11 L39.1563,4.98438 L40.1563,4.98438 L40.1563,5.92188 C40.3542,5.55729 40.6198,5.28646 40.9531,5.10938 C41.2865,4.93229 41.6927,4.84375 42.1719,4.84375 C42.2448,4.84375 42.3203,4.84635 42.3984,4.85156 C42.4766,4.85677 42.5677,4.86979 42.6719,4.89063 L42.6719,5.90625 M44.6875,3.28125 L44.6875,4.98438 L46.7188,4.98438 L46.7188,5.75 L44.6875,5.75 L44.6875,9.01563 C44.6875,9.50521 44.7552,9.82031 44.8906,9.96094 C45.026,10.1016 45.2969,10.1719 45.7031,10.1719 L46.7188,10.1719 L46.7188,11 L45.7031,11 C44.9427,11 44.4167,10.8568 44.125,10.5703 C43.8333,10.2839 43.6875,9.76563 43.6875,9.01563 L43.6875,5.75 L42.9688,5.75 L42.9688,4.98438 L43.6875,4.98438 L43.6875,3.28125 L44.6875,3.28125 M48.0156,2.64063 L49.0156,2.64063 L49.0156,11 L48.0156,11 L48.0156,2.64063 M56.2188,7.75 L56.2188,8.23438 L51.6719,8.23438 C51.7135,8.91146 51.9167,9.42708 52.2813,9.78125 C52.6458,10.1354 53.1563,10.3125 53.8125,10.3125 C54.1979,10.3125 54.5677,10.2656 54.9219,10.1719 C55.276,10.0781 55.6302,9.94271 55.9844,9.76563 L55.9844,10.6875 C55.6302,10.8438 55.2656,10.9609 54.8906,11.0391 C54.5156,11.1172 54.1406,11.1563 53.7656,11.1563 C52.7969,11.1563 52.0339,10.8776 51.4766,10.3203 C50.9193,9.76302 50.6406,9.00521 50.6406,8.04688 C50.6406,7.06771 50.9063,6.28906 51.4375,5.71094 C51.9688,5.13281 52.6875,4.84375 53.5938,4.84375 C54.3958,4.84375 55.0339,5.10417 55.5078,5.625 C55.9818,6.14583 56.2188,6.85417 56.2188,7.75 M55.2188,7.45313 C55.2188,6.91146 55.0703,6.47917 54.7734,6.15625 C54.4766,5.83333 54.0833,5.67188 53.5938,5.67188 C53.0417,5.67188 52.6016,5.82813 52.2734,6.14063 C51.9453,6.45313 51.7552,6.89063 51.7031,7.45313 L55.2188,7.45313 M58.1563,10.0938 L59.9375,10.0938 L59.9375,3.96875 L58,4.35938 L58,3.375 L59.9219,2.98438 L61.0156,2.98438 L61.0156,10.0938 L62.7813,10.0938 L62.7813,11 L58.1563,11 L58.1563,10.0938 M66.5781,2.98438 L67.4844,2.98438 L64.6875,12.0156 L63.7813,12.0156 L66.5781,2.98438 M72.8438,5.21875 L72.8438,6.14063 C72.5729,5.98438 72.2969,5.86719 72.0156,5.78906 C71.7344,5.71094 71.4479,5.67188 71.1563,5.67188 C70.5208,5.67188 70.026,5.875 69.6719,6.28125 C69.3177,6.6875 69.1406,7.26042 69.1406,8 C69.1406,8.72917 69.3177,9.29688 69.6719,9.70313 C70.026,10.1094 70.5208,10.3125 71.1563,10.3125 C71.4479,10.3125 71.7344,10.276 72.0156,10.2031 C72.2969,10.1302 72.5729,10.0156 72.8438,9.85938 L72.8438,10.7656 C72.5729,10.901 72.2891,11 71.9922,11.0625 C71.6953,11.125 71.3802,11.1563 71.0469,11.1563 C70.1406,11.1563 69.4219,10.8724 68.8906,10.3047 C68.3594,9.73698 68.0938,8.96875 68.0938,8 C68.0938,7.02083 68.362,6.25 68.8984,5.6875 C69.4349,5.125 70.1719,4.84375 71.1094,4.84375 C71.4219,4.84375 71.7214,4.875 72.0078,4.9375 C72.2943,5 72.5729,5.09375 72.8438,5.21875 M79.25,6.14063 C79.5,5.69271 79.7969,5.36458 80.1406,5.15625 C80.4844,4.94792 80.8906,4.84375 81.3594,4.84375 C81.9844,4.84375 82.4661,5.0625 82.8047,5.5 C83.1432,5.9375 83.3125,6.5625 83.3125,7.375 L83.3125,11 L82.3125,11 L82.3125,7.40625 C82.3125,6.82292 82.2109,6.39323 82.0078,6.11719 C81.8047,5.84115 81.4948,5.70313 81.0781,5.70313 C80.5677,5.70313 80.1641,5.8724 79.8672,6.21094 C79.5703,6.54948 79.4219,7.01042 79.4219,7.59375 L79.4219,11 L78.4219,11 L78.4219,7.40625 C78.4219,6.82292 78.3203,6.39323 78.1172,6.11719 C77.9141,5.84115 77.599,5.70313 77.1719,5.70313 C76.6719,5.70313 76.2734,5.8724 75.9766,6.21094 C75.6797,6.54948 75.5313,7.01042 75.5313,7.59375 L75.5313,11 L74.5313,11 L74.5313,4.98438 L75.5313,4.98438 L75.5313,5.92188 C75.75,5.54688 76.0182,5.27344 76.3359,5.10156 C76.6536,4.92969 77.026,4.84375 77.4531,4.84375 C77.8906,4.84375 78.263,4.95313 78.5703,5.17188 C78.8776,5.39063 79.1042,5.71354 79.25,6.14063 M89.2344,5.89063 L89.2344,2.64063 L90.2188,2.64063 L90.2188,11 L89.2344,11 L89.2344,10.0938 C89.026,10.4583 88.763,10.7266 88.4453,10.8984 C88.1276,11.0703 87.7448,11.1563 87.2969,11.1563 C86.5781,11.1563 85.9896,10.8672 85.5313,10.2891 C85.0729,9.71094 84.8438,8.94792 84.8438,8 C84.8438,7.05208 85.0729,6.28906 85.5313,5.71094 C85.9896,5.13281 86.5781,4.84375 87.2969,4.84375 C87.7448,4.84375 88.1276,4.92969 88.4453,5.10156 C88.763,5.27344 89.026,5.53646 89.2344,5.89063 M85.8594,8 C85.8594,8.72917 86.0104,9.29948 86.3125,9.71094 C86.6146,10.1224 87.026,10.3281 87.5469,10.3281 C88.0677,10.3281 88.4792,10.1224 88.7813,9.71094 C89.0833,9.29948 89.2344,8.72917 89.2344,8 C89.2344,7.27083 89.0833,6.70052 88.7813,6.28906 C88.4792,5.8776 88.0677,5.67188 87.5469,5.67188 C87.026,5.67188 86.6146,5.8776 86.3125,6.28906 C86.0104,6.70052 85.8594,7.27083 85.8594,8 M96.8125,12.8281 L96.8125,13.5938 L91.0938,13.5938 L91.0938,12.8281 L96.8125,12.8281 M97.0313,4.98438 L98.0781,4.98438 L99.9531,10.0313 L101.844,4.98438 L102.891,4.98438 L100.625,11 L99.2813,11 L97.0313,4.98438 M109.391,7.75 L109.391,8.23438 L104.844,8.23438 C104.885,8.91146 105.089,9.42708 105.453,9.78125 C105.818,10.1354 106.328,10.3125 106.984,10.3125 C107.37,10.3125 107.74,10.2656 108.094,10.1719 C108.448,10.0781 108.802,9.94271 109.156,9.76563 L109.156,10.6875 C108.802,10.8438 108.438,10.9609 108.063,11.0391 C107.688,11.1172 107.313,11.1563 106.938,11.1563 C105.969,11.1563 105.206,10.8776 104.648,10.3203 C104.091,9.76302 103.813,9.00521 103.813,8.04688 C103.813,7.06771 104.078,6.28906 104.609,5.71094 C105.141,5.13281 105.859,4.84375 106.766,4.84375 C107.568,4.84375 108.206,5.10417 108.68,5.625 C109.154,6.14583 109.391,6.85417 109.391,7.75 M108.391,7.45313 C108.391,6.91146 108.242,6.47917 107.945,6.15625 C107.648,5.83333 107.255,5.67188 106.766,5.67188 C106.214,5.67188 105.773,5.82813 105.445,6.14063 C105.117,6.45313 104.927,6.89063 104.875,7.45313 L108.391,7.45313 M111,2.64063 L112,2.64063 L112,11 L111,11 L111,2.64063"/>
</g>

<g fill="none" stroke="#000000" stroke-opacity="1" stroke-width="1" stroke-linecap="square" stroke-linejoin="bevel" transform="matrix(2,0,0,2,247.964,70)"
font-family="sans" font-size="11" font-weight="100" font-style="normal" 
>
</g>

<g fill="none" stroke="#000000" stroke-opacity="1" stroke-width="1" stroke-linecap="square" stroke-linejoin="bevel" transform="matrix(2,0,0,2,247.964,70)"
font-family="Ubuntu" font-size="11" font-weight="400" font-style="normal" 
>
</g>

<g fill="none" stroke="#000000" stroke-opacity="1" stroke-width="1" stroke-linecap="square" stroke-linejoin="bevel" transform="matrix(2,0,0,2,-15,167)"
font-family="Ubuntu" font-size="11" font-weight="400" font-style="normal" 
>
</g>

<g fill="#000000" fill-opacity="1" stroke="#000000" stroke-opacity="1" stroke-width="1" stroke-linecap="square" stroke-linejoin="round" transform="matrix(2,0,0,2,-15,167)"
font-family="Ubuntu" font-size="11" font-weight="400" font-style="normal" 
>
<path vector-effect="none" fill-rule="evenodd" d="M252.09,-34 L252.09,-30.493 L262.11,-34 L252.09,-37.507 L252.09,-34"/>
</g>

<g fill="none" stroke="#000000" stroke-opacity="1" stroke-width="1" stroke-linecap="square" stroke-linejoin="bevel" transform="matrix(2,0,0,2,-15,167)"
font-family="Ubuntu" font-size="11" font-weight="400" font-style="normal" 
>
</g>

<g fill="none" stroke="#000000" stroke-opacity="1" stroke-width="1" stroke-linecap="square" stroke-linejoin="bevel" transform="matrix(2,0,0,2,-15,167)"
font-family="Ubuntu" font-size="11" font-weight="400" font-style="normal" 
>
</g>

<g fill="none" stroke="#000000" stroke-opacity="1" stroke-width="1" stroke-linecap="square" stroke-linejoin="bevel" transform="matrix(2,0,0,2,-15,167)"
font-family="Ubuntu" font-size="11" font-weight="400" font-style="normal" 
>
</g>

<g fill="none" stroke="#000000" stroke-opacity="1" stroke-width="1" stroke-linecap="square" stroke-linejoin="bevel" transform="matrix(2,0,0,2,-15,167)"
font-family="Ubuntu" font-size="11" font-weight="400" font-style="normal" 
>
</g>

<g fill="none" stroke="#000000" stroke-opacity="1" stroke-width="1" stroke-linecap="square" stroke-linejoin="round" transform="matrix(2,0,0,2,-15,167)"
font-family="Ubuntu" font-size="11" font-weight="400" font-style="normal" 
>
<path vector-effect="none" fill-rule="evenodd" d="M113.79,-34 C153.37,-34 209.32,-34 252.09,-34 "/>
</g>

<g fill="none" stroke="#000000" stroke-opacity="1" stroke-width="1" stroke-linecap="square" stroke-linejoin="bevel" transform="matrix(2,0,0,2,-15,167)"
font-family="Ubuntu" font-size="11" font-weight="400" font-style="normal" 
>
</g>

<g fill="none" stroke="#000000" stroke-opacity="1" stroke-width="1" stroke-linecap="square" stroke-linejoin="bevel" transform="matrix(2,0,0,2,247.964,70)"
font-family="Ubuntu" font-size="11" font-weight="400" font-style="normal" 
>
</g>

<g fill="none" stroke="#000000" stroke-opacity="1" stroke-width="1" stroke-linecap="square" stroke-linejoin="bevel" transform="matrix(2,0,0,2,247.964,70)"
font-family="sans" font-size="11" font-weight="100" font-style="normal" 
>
</g>

<g fill="#000000" fill-opacity="1" stroke="#000000" stroke-opacity="1" stroke-width="1" stroke-linecap="square" stroke-linejoin="round" transform="matrix(2,0,0,2,247.964,70)"
font-family="sans" font-size="11" font-weight="100" font-style="normal" 
>
<path vector-effect="none" fill-rule="nonzero" d="M2.79688,2.98438 L3.70313,2.98438 L0.90625,12.0156 L0,12.0156 L2.79688,2.98438 M8.57813,5.15625 L8.57813,6.09375 C8.29688,5.94792 8.00521,5.84115 7.70313,5.77344 C7.40104,5.70573 7.08854,5.67188 6.76563,5.67188 C6.27604,5.67188 5.90885,5.7474 5.66406,5.89844 C5.41927,6.04948 5.29688,6.27083 5.29688,6.5625 C5.29688,6.79167 5.38542,6.97135 5.5625,7.10156 C5.73958,7.23177 6.09375,7.35938 6.625,7.48438 L6.95313,7.5625 C7.66146,7.70833 8.16146,7.91927 8.45313,8.19531 C8.74479,8.47135 8.89063,8.85417 8.89063,9.34375 C8.89063,9.89583 8.67188,10.3359 8.23438,10.6641 C7.79688,10.9922 7.1875,11.1563 6.40625,11.1563 C6.08333,11.1563 5.7474,11.125 5.39844,11.0625 C5.04948,11 4.68229,10.9063 4.29688,10.7813 L4.29688,9.76563 C4.66146,9.95313 5.02083,10.0938 5.375,10.1875 C5.72917,10.2813 6.08333,10.3281 6.4375,10.3281 C6.89583,10.3281 7.25,10.2474 7.5,10.0859 C7.75,9.92448 7.875,9.70313 7.875,9.42188 C7.875,9.15104 7.78646,8.94271 7.60938,8.79688 C7.43229,8.65104 7.03646,8.51563 6.42188,8.39063 L6.07813,8.29688 C5.46354,8.17188 5.02083,7.97656 4.75,7.71094 C4.47917,7.44531 4.34375,7.07813 4.34375,6.60938 C4.34375,6.04688 4.54427,5.61198 4.94531,5.30469 C5.34635,4.9974 5.91667,4.84375 6.65625,4.84375 C7.02083,4.84375 7.36458,4.86979 7.6875,4.92188 C8.01042,4.97396 8.30729,5.05208 8.57813,5.15625 M10.4531,4.98438 L11.4531,4.98438 L11.4531,11 L10.4531,11 L10.4531,4.98438 M10.4531,2.64063 L11.4531,2.64063 L11.4531,3.89063 L10.4531,3.89063 L10.4531,2.64063 M18.1875,6.14063 C18.4375,5.69271 18.7344,5.36458 19.0781,5.15625 C19.4219,4.94792 19.8281,4.84375 20.2969,4.84375 C20.9219,4.84375 21.4036,5.0625 21.7422,5.5 C22.0807,5.9375 22.25,6.5625 22.25,7.375 L22.25,11 L21.25,11 L21.25,7.40625 C21.25,6.82292 21.1484,6.39323 20.9453,6.11719 C20.7422,5.84115 20.4323,5.70313 20.0156,5.70313 C19.5052,5.70313 19.1016,5.8724 18.8047,6.21094 C18.5078,6.54948 18.3594,7.01042 18.3594,7.59375 L18.3594,11 L17.3594,11 L17.3594,7.40625 C17.3594,6.82292 17.2578,6.39323 17.0547,6.11719 C16.8516,5.84115 16.5365,5.70313 16.1094,5.70313 C15.6094,5.70313 15.2109,5.8724 14.9141,6.21094 C14.6172,6.54948 14.4688,7.01042 14.4688,7.59375 L14.4688,11 L13.4688,11 L13.4688,4.98438 L14.4688,4.98438 L14.4688,5.92188 C14.6875,5.54688 14.9557,5.27344 15.2734,5.10156 C15.5911,4.92969 15.9635,4.84375 16.3906,4.84375 C16.8281,4.84375 17.2005,4.95313 17.5078,5.17188 C17.8151,5.39063 18.0417,5.71354 18.1875,6.14063 M25.9688,2.98438 L26.875,2.98438 L24.0781,12.0156 L23.1719,12.0156 L25.9688,2.98438 M28.8906,3.28125 L28.8906,4.98438 L30.9219,4.98438 L30.9219,5.75 L28.8906,5.75 L28.8906,9.01563 C28.8906,9.50521 28.9583,9.82031 29.0938,9.96094 C29.2292,10.1016 29.5,10.1719 29.9063,10.1719 L30.9219,10.1719 L30.9219,11 L29.9063,11 C29.1458,11 28.6198,10.8568 28.3281,10.5703 C28.0365,10.2839 27.8906,9.76563 27.8906,9.01563 L27.8906,5.75 L27.1719,5.75 L27.1719,4.98438 L27.8906,4.98438 L27.8906,3.28125 L28.8906,3.28125 M32.125,8.625 L32.125,4.98438 L33.1094,4.98438 L33.1094,8.59375 C33.1094,9.15625 33.2214,9.58073 33.4453,9.86719 C33.6693,10.1536 34,10.2969 34.4375,10.2969 C34.9792,10.2969 35.4036,10.1276 35.7109,9.78906 C36.0182,9.45052 36.1719,8.98438 36.1719,8.39063 L36.1719,4.98438 L37.1563,4.98438 L37.1563,11 L36.1719,11 L36.1719,10.0781 C35.9323,10.4427 35.6536,10.7135 35.3359,10.8906 C35.0182,11.0677 34.651,11.1563 34.2344,11.1563 C33.5469,11.1563 33.0234,10.9401 32.6641,10.5078 C32.3047,10.0755 32.125,9.44792 32.125,8.625 M42.6719,5.90625 C42.5677,5.84375 42.4505,5.79688 42.3203,5.76563 C42.1901,5.73438 42.0469,5.71875 41.8906,5.71875 C41.3281,5.71875 40.8984,5.90104 40.6016,6.26563 C40.3047,6.63021 40.1563,7.15104 40.1563,7.82813 L40.1563,11 L39.1563,11 L39.1563,4.98438 L40.1563,4.98438 L40.1563,5.92188 C40.3542,5.55729 40.6198,5.28646 40.9531,5.10938 C41.2865,4.93229 41.6927,4.84375 42.1719,4.84375 C42.2448,4.84375 42.3203,4.84635 42.3984,4.85156 C42.4766,4.85677 42.5677,4.86979 42.6719,4.89063 L42.6719,5.90625 M44.6875,3.28125 L44.6875,4.98438 L46.7188,4.98438 L46.7188,5.75 L44.6875,5.75 L44.6875,9.01563 C44.6875,9.50521 44.7552,9.82031 44.8906,9.96094 C45.026,10.1016 45.2969,10.1719 45.7031,10.1719 L46.7188,10.1719 L46.7188,11 L45.7031,11 C44.9427,11 44.4167,10.8568 44.125,10.5703 C43.8333,10.2839 43.6875,9.76563 43.6875,9.01563 L43.6875,5.75 L42.9688,5.75 L42.9688,4.98438 L43.6875,4.98438 L43.6875,3.28125 L44.6875,3.28125 M48.0156,2.64063 L49.0156,2.64063 L49.0156,11 L48.0156,11 L48.0156,2.64063 M56.2188,7.75 L56.2188,8.23438 L51.6719,8.23438 C51.7135,8.91146 51.9167,9.42708 52.2813,9.78125 C52.6458,10.1354 53.1563,10.3125 53.8125,10.3125 C54.1979,10.3125 54.5677,10.2656 54.9219,10.1719 C55.276,10.0781 55.6302,9.94271 55.9844,9.76563 L55.9844,10.6875 C55.6302,10.8438 55.2656,10.9609 54.8906,11.0391 C54.5156,11.1172 54.1406,11.1563 53.7656,11.1563 C52.7969,11.1563 52.0339,10.8776 51.4766,10.3203 C50.9193,9.76302 50.6406,9.00521 50.6406,8.04688 C50.6406,7.06771 50.9063,6.28906 51.4375,5.71094 C51.9688,5.13281 52.6875,4.84375 53.5938,4.84375 C54.3958,4.84375 55.0339,5.10417 55.5078,5.625 C55.9818,6.14583 56.2188,6.85417 56.2188,7.75 M55.2188,7.45313 C55.2188,6.91146 55.0703,6.47917 54.7734,6.15625 C54.4766,5.83333 54.0833,5.67188 53.5938,5.67188 C53.0417,5.67188 52.6016,5.82813 52.2734,6.14063 C51.9453,6.45313 51.7552,6.89063 51.7031,7.45313 L55.2188,7.45313 M58.1563,10.0938 L59.9375,10.0938 L59.9375,3.96875 L58,4.35938 L58,3.375 L59.9219,2.98438 L61.0156,2.98438 L61.0156,10.0938 L62.7813,10.0938 L62.7813,11 L58.1563,11 L58.1563,10.0938 M66.5781,2.98438 L67.4844,2.98438 L64.6875,12.0156 L63.7813,12.0156 L66.5781,2.98438 M72.8438,5.21875 L72.8438,6.14063 C72.5729,5.98438 72.2969,5.86719 72.0156,5.78906 C71.7344,5.71094 71.4479,5.67188 71.1563,5.67188 C70.5208,5.67188 70.026,5.875 69.6719,6.28125 C69.3177,6.6875 69.1406,7.26042 69.1406,8 C69.1406,8.72917 69.3177,9.29688 69.6719,9.70313 C70.026,10.1094 70.5208,10.3125 71.1563,10.3125 C71.4479,10.3125 71.7344,10.276 72.0156,10.2031 C72.2969,10.1302 72.5729,10.0156 72.8438,9.85938 L72.8438,10.7656 C72.5729,10.901 72.2891,11 71.9922,11.0625 C71.6953,11.125 71.3802,11.1563 71.0469,11.1563 C70.1406,11.1563 69.4219,10.8724 68.8906,10.3047 C68.3594,9.73698 68.0938,8.96875 68.0938,8 C68.0938,7.02083 68.362,6.25 68.8984,5.6875 C69.4349,5.125 70.1719,4.84375 71.1094,4.84375 C71.4219,4.84375 71.7214,4.875 72.0078,4.9375 C72.2943,5 72.5729,5.09375 72.8438,5.21875 M79.25,6.14063 C79.5,5.69271 79.7969,5.36458 80.1406,5.15625 C80.4844,4.94792 80.8906,4.84375 81.3594,4.84375 C81.9844,4.84375 82.4661,5.0625 82.8047,5.5 C83.1432,5.9375 83.3125,6.5625 83.3125,7.375 L83.3125,11 L82.3125,11 L82.3125,7.40625 C82.3125,6.82292 82.2109,6.39323 82.0078,6.11719 C81.8047,5.84115 81.4948,5.70313 81.0781,5.70313 C80.5677,5.70313 80.1641,5.8724 79.8672,6.21094 C79.5703,6.54948 79.4219,7.01042 79.4219,7.59375 L79.4219,11 L78.4219,11 L78.4219,7.40625 C78.4219,6.82292 78.3203,6.39323 78.1172,6.11719 C77.9141,5.84115 77.599,5.70313 77.1719,5.70313 C76.6719,5.70313 76.2734,5.8724 75.9766,6.21094 C75.6797,6.54948 75.5313,7.01042 75.5313,7.59375 L75.5313,11 L74.5313,11 L74.5313,4.98438 L75.5313,4.98438 L75.5313,5.92188 C75.75,5.54688 76.0182,5.27344 76.3359,5.10156 C76.6536,4.92969 77.026,4.84375 77.4531,4.84375 C77.8906,4.84375 78.263,4.95313 78.5703,5.17188 C78.8776,5.39063 79.1042,5.71354 79.25,6.14063 M89.2344,5.89063 L89.2344,2.64063 L90.2188,2.64063 L90.2188,11 L89.2344,11 L89.2344,10.0938 C89.026,10.4583 88.763,10.7266 88.4453,10.8984 C88.1276,11.0703 87.7448,11.1563 87.2969,11.1563 C86.5781,11.1563 85.9896,10.8672 85.5313,10.2891 C85.0729,9.71094 84.8438,8.94792 84.8438,8 C84.8438,7.05208 85.0729,6.28906 85.5313,5.71094 C85.9896,5.13281 86.5781,4.84375 87.2969,4.84375 C87.7448,4.84375 88.1276,4.92969 88.4453,5.10156 C88.763,5.27344 89.026,5.53646 89.2344,5.89063 M85.8594,8 C85.8594,8.72917 86.0104,9.29948 86.3125,9.71094 C86.6146,10.1224 87.026,10.3281 87.5469,10.3281 C88.0677,10.3281 88.4792,10.1224 88.7813,9.71094 C89.0833,9.29948 89.2344,8.72917 89.2344,8 C89.2344,7.27083 89.0833,6.70052 88.7813,6.28906 C88.4792,5.8776 88.0677,5.67188 87.5469,5.67188 C87.026,5.67188 86.6146,5.8776 86.3125,6.28906 C86.0104,6.70052 85.8594,7.27083 85.8594,8 M96.8125,12.8281 L96.8125,13.5938 L91.0938,13.5938 L91.0938,12.8281 L96.8125,12.8281 M97.0313,4.98438 L98.0781,4.98438 L99.9531,10.0313 L101.844,4.98438 L102.891,4.98438 L100.625,11 L99.2813,11 L97.0313,4.98438 M109.391,7.75 L109.391,8.23438 L104.844,8.23438 C104.885,8.91146 105.089,9.42708 105.453,9.78125 C105.818,10.1354 106.328,10.3125 106.984,10.3125 C107.37,10.3125 107.74,10.2656 108.094,10.1719 C108.448,10.0781 108.802,9.94271 109.156,9.76563 L109.156,10.6875 C108.802,10.8438 108.438,10.9609 108.063,11.0391 C107.688,11.1172 107.313,11.1563 106.938,11.1563 C105.969,11.1563 105.206,10.8776 104.648,10.3203 C104.091,9.76302 103.813,9.00521 103.813,8.04688 C103.813,7.06771 104.078,6.28906 104.609,5.71094 C105.141,5.13281 105.859,4.84375 106.766,4.84375 C107.568,4.84375 108.206,5.10417 108.68,5.625 C109.154,6.14583 109.391,6.85417 109.391,7.75 M108.391,7.45313 C108.391,6.91146 108.242,6.47917 107.945,6.15625 C107.648,5.83333 107.255,5.67188 106.766,5.67188 C106.214,5.67188 105.773,5.82813 105.445,6.14063 C105.117,6.45313 104.927,6.89063 104.875,7.45313 L108.391,7.45313 M111,2.64063 L112,2.64063 L112,11 L111,11 L111,2.64063"/>
</g>

<g fill="none" stroke="#000000" stroke-opacity="1" stroke-width="1" stroke-linecap="square" stroke-linejoin="bevel" transform="matrix(2,0,0,2,247.964,70)"
font-family="sans" font-size="11" font-weight="100" font-style="normal" 
>
</g>

<g fill="none" stroke="#000000" stroke-opacity="1" stroke-width="1" stroke-linecap="square" stroke-linejoin="bevel" transform="matrix(2,0,0,2,247.964,70)"
font-family="Ubuntu" font-size="11" font-weight="400" font-style="normal" 
>
</g>

<g fill="none" stroke="#000000" stroke-opacity="1" stroke-width="1" stroke-linecap="square" stroke-linejoin="bevel" transform="matrix(2,0,0,2,-15,167)"
font-family="Ubuntu" font-size="11" font-weight="400" font-style="normal" 
>
</g>

<g fill="#000000" fill-opacity="1" stroke="#000000" stroke-opacity="1" stroke-width="1" stroke-linecap="square" stroke-linejoin="round" transform="matrix(2,0,0,2,-15,167)"
font-family="Ubuntu" font-size="11" font-weight="400" font-style="normal" 
>
<path vector-effect="none" fill-rule="evenodd" d="M252.09,-34 L252.09,-30.493 L262.11,-34 L252.09,-37.507 L252.09,-34"/>
</g>

<g fill="none" stroke="#000000" stroke-opacity="1" stroke-width="1" stroke-linecap="square" stroke-linejoin="bevel" transform="matrix(2,0,0,2,-15,167)"
font-family="Ubuntu" font-size="11" font-weight="400" font-style="normal" 
>
</g>

<g fill="none" stroke="#000000" stroke-opacity="1" stroke-width="1" stroke-linecap="square" stroke-linejoin="bevel" transform="matrix(1,0,0,1,0,0)"
font-family="Ubuntu" font-size="11" font-weight="400" font-style="normal" 
>
</g>
</g>
</svg>
